<?xml version="1.0" encoding="UTF-8" standalone="no"?>
<!DOCTYPE svg PUBLIC "-//W3C//DTD SVG 1.1//EN" "http://www.w3.org/Graphics/SVG/1.1/DTD/svg11.dtd">
<svg width="100%" height="100%" viewBox="0 0 959 201" version="1.1" xmlns="http://www.w3.org/2000/svg" xmlns:xlink="http://www.w3.org/1999/xlink" xml:space="preserve" xmlns:serif="http://www.serif.com/" style="fill-rule:evenodd;clip-rule:evenodd;stroke-linejoin:round;stroke-miterlimit:2;">
    <g id="Artboard1" transform="matrix(0.374346,0,0,0.138974,0,0)">
        <rect x="0" y="0" width="2560" height="1440" style="fill:none;"/>
        <clipPath id="_clip1">
            <rect x="0" y="0" width="2560" height="1440"/>
        </clipPath>
        <g clip-path="url(#_clip1)">
            <g transform="matrix(2.67132,0,0,7.1956,-3784.54,-715.774)">
                <g id="rect1473-1" transform="matrix(1,0,0,1,1332.37,-79.5728)">
                    <path d="M96.861,179.047C89.936,179.047 84.361,184.622 84.361,191.547L84.361,254.045L109.363,254.045C112.488,254.045 115.001,253.988 117.971,254.318C120.941,254.648 125.411,255.544 129.139,259.271C132.866,262.999 133.762,267.469 134.092,270.439C134.422,273.409 134.357,275.922 134.357,279.047L134.357,379.047L174.023,379.047C171.325,378.575 167.986,377.513 164.971,374.619C161.194,370.994 160.187,366.43 159.848,363.5C159.508,360.57 159.574,358.175 159.574,355.226L159.574,279.154C159.574,276.016 159.518,273.493 159.84,270.531C160.162,267.569 161.009,263.135 164.697,259.367C168.386,255.599 172.891,254.656 175.851,254.32C178.812,253.984 181.291,254.045 184.363,254.045L209.1,254.045C212.225,254.045 214.737,253.989 217.707,254.32C220.677,254.652 225.149,255.549 228.877,259.293C232.604,263.036 233.5,267.527 233.83,270.51C234.16,273.492 234.096,276.016 234.096,279.154L234.096,355.226C234.096,358.175 234.162,360.57 233.814,363.521C233.467,366.472 232.408,371.097 228.596,374.693C225.571,377.547 222.271,378.585 219.584,379.047L271.861,379.047C278.786,379.047 284.361,373.472 284.361,366.547L284.361,191.547C284.361,184.622 278.786,179.047 271.861,179.047L96.861,179.047ZM109.361,204.047L134.361,204.047L134.361,229.047L109.361,229.047L109.361,204.047ZM84.361,279.047L84.361,366.547C84.361,373.472 89.936,379.047 96.861,379.047L109.363,379.047L109.363,279.047L84.361,279.047ZM184.576,279.152L184.576,354.471L209.1,354.471L209.1,279.152L184.576,279.152Z" style="fill:rgb(203,75,22);fill-rule:nonzero;"/>
                </g>
                <g transform="matrix(1,0,0,1.03659,79.1586,-76.8214)">
                    <g transform="matrix(184.507,0,0,184.507,1570.89,327.286)">
                        <path d="M0.09,0L0.09,-0.656L0.295,-0.656C0.328,-0.656 0.359,-0.653 0.388,-0.647C0.416,-0.64 0.44,-0.63 0.461,-0.615C0.481,-0.6 0.497,-0.581 0.508,-0.558C0.519,-0.535 0.525,-0.506 0.525,-0.472C0.525,-0.421 0.512,-0.38 0.485,-0.349C0.458,-0.318 0.422,-0.297 0.377,-0.286L0.544,0L0.45,0L0.292,-0.277L0.173,-0.277L0.173,0L0.09,0ZM0.173,-0.345L0.283,-0.345C0.334,-0.345 0.374,-0.356 0.401,-0.377C0.428,-0.398 0.442,-0.429 0.442,-0.472C0.442,-0.515 0.428,-0.546 0.401,-0.563C0.374,-0.58 0.334,-0.589 0.283,-0.589L0.173,-0.589L0.173,-0.345Z" style="fill:rgb(101,123,131);fill-rule:nonzero;"/>
                    </g>
                    <g transform="matrix(184.507,0,0,184.507,1688.07,327.286)">
                        <path d="M0.09,0L0.09,-0.656L0.468,-0.656L0.468,-0.586L0.173,-0.586L0.173,-0.38L0.422,-0.38L0.422,-0.309L0.173,-0.309L0.173,-0.071L0.478,-0.071L0.478,0L0.09,0Z" style="fill:rgb(101,123,131);fill-rule:nonzero;"/>
                    </g>
                    <g transform="matrix(184.507,0,0,177.995,1797.51,325.15)">
                        <path d="M0.338,0.012C0.297,0.012 0.259,0.004 0.224,-0.011C0.189,-0.026 0.159,-0.049 0.134,-0.078C0.108,-0.107 0.088,-0.142 0.074,-0.185C0.059,-0.227 0.052,-0.275 0.052,-0.328C0.052,-0.381 0.059,-0.428 0.074,-0.47C0.089,-0.512 0.109,-0.548 0.135,-0.577C0.161,-0.606 0.192,-0.629 0.227,-0.645C0.262,-0.66 0.301,-0.668 0.343,-0.668C0.383,-0.668 0.418,-0.66 0.449,-0.644C0.479,-0.627 0.504,-0.608 0.523,-0.587L0.478,-0.533C0.461,-0.552 0.441,-0.567 0.419,-0.578C0.397,-0.589 0.372,-0.595 0.344,-0.595C0.313,-0.595 0.284,-0.589 0.259,-0.577C0.234,-0.564 0.212,-0.547 0.194,-0.524C0.176,-0.501 0.162,-0.473 0.153,-0.44C0.143,-0.407 0.138,-0.371 0.138,-0.33C0.138,-0.289 0.143,-0.252 0.153,-0.219C0.162,-0.186 0.176,-0.157 0.193,-0.134C0.21,-0.111 0.232,-0.093 0.257,-0.08C0.282,-0.067 0.31,-0.061 0.341,-0.061C0.373,-0.061 0.401,-0.068 0.425,-0.081C0.449,-0.094 0.472,-0.112 0.493,-0.135L0.539,-0.083C0.513,-0.053 0.484,-0.03 0.451,-0.013C0.418,0.004 0.381,0.012 0.338,0.012Z" style="fill:rgb(101,123,131);fill-rule:nonzero;"/>
                    </g>
                    <g transform="matrix(184.507,0,0,184.507,1915.07,327.286)">
                        <rect x="0.09" y="-0.656" width="0.083" height="0.656" style="fill:rgb(101,123,131);fill-rule:nonzero;"/>
                    </g>
                    <g transform="matrix(184.507,0,0,184.507,1975.8,327.286)">
                        <path d="M0.09,0L0.09,-0.656L0.277,-0.656C0.314,-0.656 0.347,-0.653 0.378,-0.646C0.408,-0.639 0.434,-0.628 0.455,-0.614C0.476,-0.599 0.493,-0.579 0.505,-0.554C0.517,-0.529 0.523,-0.499 0.523,-0.463C0.523,-0.428 0.517,-0.398 0.506,-0.373C0.494,-0.348 0.477,-0.327 0.456,-0.31C0.435,-0.293 0.409,-0.281 0.38,-0.273C0.35,-0.264 0.317,-0.26 0.281,-0.26L0.173,-0.26L0.173,0L0.09,0ZM0.173,-0.328L0.271,-0.328C0.328,-0.328 0.371,-0.339 0.399,-0.361C0.426,-0.382 0.44,-0.416 0.44,-0.463C0.44,-0.51 0.426,-0.543 0.397,-0.562C0.368,-0.58 0.324,-0.589 0.267,-0.589L0.173,-0.589L0.173,-0.328Z" style="fill:rgb(101,123,131);fill-rule:nonzero;"/>
                    </g>
                    <g transform="matrix(184.507,0,0,184.507,2092.44,327.286)">
                        <path d="M0.09,0L0.09,-0.656L0.468,-0.656L0.468,-0.586L0.173,-0.586L0.173,-0.38L0.422,-0.38L0.422,-0.309L0.173,-0.309L0.173,-0.071L0.478,-0.071L0.478,0L0.09,0Z" style="fill:rgb(101,123,131);fill-rule:nonzero;"/>
                    </g>
                    <g transform="matrix(184.507,0,0,177.995,2201.87,325.15)">
                        <path d="M0.272,0.012C0.226,0.012 0.183,0.003 0.144,-0.014C0.105,-0.031 0.071,-0.055 0.042,-0.085L0.092,-0.143C0.115,-0.118 0.143,-0.098 0.175,-0.084C0.206,-0.069 0.239,-0.061 0.273,-0.061C0.316,-0.061 0.35,-0.071 0.374,-0.091C0.398,-0.11 0.41,-0.136 0.41,-0.168C0.41,-0.185 0.407,-0.199 0.402,-0.211C0.396,-0.222 0.388,-0.232 0.379,-0.241C0.369,-0.249 0.357,-0.256 0.344,-0.263C0.331,-0.27 0.316,-0.277 0.301,-0.284L0.207,-0.325C0.192,-0.332 0.176,-0.34 0.16,-0.349C0.144,-0.358 0.13,-0.37 0.117,-0.383C0.104,-0.396 0.094,-0.412 0.086,-0.431C0.078,-0.449 0.074,-0.47 0.074,-0.494C0.074,-0.519 0.079,-0.542 0.09,-0.563C0.1,-0.584 0.114,-0.603 0.133,-0.619C0.151,-0.634 0.173,-0.646 0.198,-0.655C0.223,-0.664 0.25,-0.668 0.28,-0.668C0.319,-0.668 0.356,-0.661 0.389,-0.646C0.422,-0.63 0.451,-0.611 0.474,-0.587L0.429,-0.533C0.409,-0.552 0.387,-0.568 0.363,-0.579C0.338,-0.59 0.311,-0.595 0.28,-0.595C0.243,-0.595 0.214,-0.587 0.192,-0.57C0.169,-0.553 0.158,-0.529 0.158,-0.499C0.158,-0.483 0.161,-0.47 0.168,-0.459C0.174,-0.448 0.182,-0.438 0.193,-0.43C0.204,-0.421 0.215,-0.414 0.228,-0.408C0.241,-0.401 0.254,-0.395 0.267,-0.39L0.36,-0.35C0.379,-0.342 0.396,-0.333 0.413,-0.323C0.43,-0.312 0.444,-0.3 0.456,-0.287C0.468,-0.273 0.478,-0.257 0.485,-0.239C0.492,-0.22 0.495,-0.199 0.495,-0.175C0.495,-0.149 0.49,-0.125 0.48,-0.102C0.469,-0.079 0.454,-0.06 0.435,-0.043C0.416,-0.026 0.392,-0.012 0.365,-0.003C0.338,0.007 0.307,0.012 0.272,0.012Z" style="fill:rgb(101,123,131);fill-rule:nonzero;"/>
                    </g>
                </g>
            </g>
        </g>
    </g>
</svg>
